<?xml version="1.0" encoding="utf-8"?>
<!-- Generator: Adobe Illustrator 23.0.2, SVG Export Plug-In . SVG Version: 6.00 Build 0)  -->
<svg version="1.1" id="Layer_1" xmlns="http://www.w3.org/2000/svg" xmlns:xlink="http://www.w3.org/1999/xlink" x="0px" y="0px"
	 viewBox="0 0 1366 768" style="enable-background:new 0 0 1366 768;" xml:space="preserve">
<style type="text/css">
	.st0{fill:#F5B503;}
	.st1{fill:#FFFFFF;}
</style>
<path class="st0" d="M731.5,342.8c0,21-0.5,42,0.1,62.9c0.5,17.6,7.4,25.9,21.3,28.1c16,2.5,29.8-4.8,36.1-19.1
	c3.1-7.1,3.7-14.7,4.5-22.3c3.8-33.7,4.4-67.4-1.9-101c-7.3-38.7-30.3-63.4-67.2-75.3c-46.4-15-92.9-14.5-138.9,1.6
	c-42.2,14.8-65.6,45.6-71.3,89.5c-5.3,40.9-5.1,82,0.6,122.9c8.3,59,45.7,98.3,104.1,109c45.4,8.3,90.1,4.2,133.9-9.9
	c6.1-2,11.9-1.9,17.7,0.5c10.6,4.6,19.5,11.4,25.2,21.6c4.6,8.3,3.2,12.5-4.7,17.7c-25.3,16.5-53.7,24-83.2,27
	c-47.2,4.8-93.4,0.1-138.2-16.2c-61.5-22.4-96.1-67.6-108.6-130.5c-7.6-38.5-7.6-77.5-5.7-116.6c1.1-22.2,3.2-44.2,10.2-65.5
	c16.8-51.5,52-84.4,102.6-101.6c26.8-9.1,54.4-13.3,82.7-14c37.9-0.9,74.8,4.4,109.5,20c52.3,23.4,81.9,64.2,88.8,120.9
	c4.4,35.9,4,72.1,0.8,108c-3.1,34.3-18.5,61.9-50.5,77.8c-17.5,8.7-36.2,11.8-55.6,8.8c-12.4-1.9-22.9-7.8-31.2-17.3
	c-1.4-1.6-2.7-3.2-3.9-4.8c-6.1-7.8-8.3-7.9-14.7-0.4c-26,30.6-75.3,32.4-103.2,3.7c-12.8-13.2-17.3-29.8-18.2-47.5
	c-1.7-32.9-2.6-65.9,0.9-98.7c2.4-23,11.7-42.5,32.9-54.2c24.4-13.4,50.4-9.8,72.2,9.8c3.6,3.3,5.2,4,7.9-1c3.3-6.2,9.4-9,16.4-9.3
	c7.9-0.3,15.5,1.6,23.2,2.4c4.7,0.5,4.9,4.7,4.9,8.5c-0.1,18.6-0.2,37.1-0.3,55.7c0,2.9,0,5.9,0,8.8
	C731.1,342.8,731.3,342.8,731.5,342.8z"/>
<path class="st1" d="M629.9,373.1c0.3-12.2-0.6-25.4,0.7-38.5c1.3-12.6,7.9-19.3,19.2-19.8c12.3-0.5,19.8,5.4,22.7,17.6
	c1.1,4.6,1.5,9.3,1.4,13.9c-0.5,20.2,1.9,40.5-0.4,60.7c-0.5,4.2-1,8.3-2.5,12.2c-3.9,10.1-12.7,15.1-24.1,13.7
	c-9.3-1.1-15.1-7.7-16.1-18.8C629.4,400.8,630,387.5,629.9,373.1z"/>
</svg>
