<?xml version="1.0" encoding="utf-8"?>
<!-- Generator: Adobe Illustrator 23.0.2, SVG Export Plug-In . SVG Version: 6.00 Build 0)  -->
<svg version="1.1" id="Layer_1" xmlns="http://www.w3.org/2000/svg" xmlns:xlink="http://www.w3.org/1999/xlink" x="0px" y="0px"
	 viewBox="0 0 512 512" style="enable-background:new 0 0 512 512;" xml:space="preserve">
<style type="text/css">
	.st0{fill:#DD5341;}
	.st1{fill:#FEFEFE;}
</style>
<g>
	<path class="st0" d="M434.9,510.9H74.8c-38.8,0-70.3-31.5-70.3-70.3V71C4.5,32.1,36,0.7,74.8,0.7h360.1c38.8,0,70.3,31.5,70.3,70.3
		v369.6C505.3,479.4,473.8,510.9,434.9,510.9z"/>
	<g>
		<path class="st1" d="M269.9,215.1c5.7-18.7,20.4-23.9,37.4-25.9c13.3-1.6,26.5-1.4,39.4,2.4c19.6,5.8,30.6,19.8,36.4,38.7
			c4.8,15.8,6.3,32.1,6.4,48.5c0.3,38.5,0.1,77,0.3,115.5c0,3.4-1.3,3.7-4,3.7c-17.3-0.1-34.6-0.1-51.9,0c-3.3,0-4.1-0.9-4.1-4.2
			c0.1-38.2,0.1-76.3,0.1-114.5c0.1-2.5-0.1-5-0.4-7.5c-2.4-14.3-10.5-21.9-24.9-23.4c-5-0.6-10-0.2-14.8,0.9
			c-12.4,3.1-19.5,13-19.6,27.8c-0.1,25.4,0,50.8,0,76.2c0,13.6-0.1,27.1,0.1,40.7c0,3-0.7,3.9-3.8,3.9c-17.5-0.1-34.9-0.1-52.4,0
			c-3.2,0-3.8-0.9-3.8-3.9c0.1-67.3,0.1-134.6,0-201.9c0-2.7,0.4-3.7,3.5-3.7c17.6,0.2,35.2,0.2,52.8,0c2.9,0,3.7,0.7,3.6,3.6
			C269.7,199.7,269.9,207.4,269.9,215.1z"/>
		<path class="st1" d="M120.2,292.6c0-33.2,0.1-66.3-0.1-99.5c0-4,1-4.8,4.9-4.8c16.8,0.2,33.7,0.2,50.5,0c3.4,0,4.7,0.5,4.7,4.4
			c-0.1,67-0.1,133.9,0,200.9c0,3.6-0.9,4.3-4.4,4.3c-17.1-0.2-34.3-0.2-51.4,0c-3.7,0-4.2-1.2-4.2-4.5
			C120.3,359.9,120.2,326.2,120.2,292.6z"/>
		<path class="st1" d="M180.1,143.4c0.1,17.2-14.3,31.2-31.8,30.1c-14.8-0.9-26.8-12.8-27.9-27.5c-1.3-17.5,12.4-32.1,29.6-32.3
			C166.4,113.5,179.9,126.8,180.1,143.4C180.1,143.3,180.1,143.3,180.1,143.4z"/>
	</g>
</g>
</svg>
