<svg xmlns="http://www.w3.org/2000/svg" viewBox="0 0 288.2 304.11"><defs><style>.cls-1{fill:#dd5341;}</style></defs><title>Asset 2</title><g id="Layer_2" data-name="Layer 2"><g id="Layer_1-2" data-name="Layer 1"><path class="cls-1" d="M160.11,108.57C166.19,88.63,181.9,83,200.06,80.89c14.19-1.66,28.3-1.5,42.09,2.56,21,6.19,32.73,21.22,38.89,41.37,5.17,16.88,6.69,34.33,6.84,51.82.34,41.16.13,82.32.31,123.48,0,3.58-1.35,3.95-4.32,3.93-18.5-.11-37-.15-55.49,0-3.58,0-4.36-1-4.35-4.44q.18-61.24.06-122.48a49.12,49.12,0,0,0-.48-8c-2.56-15.29-11.28-23.45-26.67-25a46.19,46.19,0,0,0-15.89,1.06c-13.28,3.28-20.86,13.93-20.92,29.68-.08,27.16,0,54.32,0,81.49,0,14.49-.09,29,.07,43.49,0,3.18-.73,4.22-4.08,4.19q-28-.25-56,0c-3.38,0-4.07-1-4.07-4.2q.13-108,0-216c0-2.89.48-4,3.76-4q28.23.25,56.48,0c3.08,0,4,.78,3.89,3.88C160,92.06,160.11,100.32,160.11,108.57Z"/><path class="cls-1" d="M.11,191.42C.11,156,.19,120.48,0,85c0-4.22,1.11-5.17,5.21-5.12,18,.24,36,.2,54,0,3.64,0,5.06.55,5,4.75q-.22,107.4,0,214.81c0,3.82-1,4.65-4.69,4.61-18.32-.2-36.64-.23-54.95,0-4,.06-4.54-1.24-4.53-4.77C.16,263.36.11,227.39.11,191.42Z"/><path class="cls-1" d="M64.1,31.83A32,32,0,1,1,31.81,0,32,32,0,0,1,64.1,31.83Z"/></g></g></svg>